<svg xmlns="http://www.w3.org/2000/svg" viewBox="0 0 200 200" width="200" height="200">
  <rect x="0" y="0" width="200" height="200" fill="white" rx="5"/>
  <g fill="none" stroke="#FF6600" stroke-width="6" stroke-linecap="round" stroke-linejoin="round">
    <!-- Cloud shape -->
    <path d="M55 130 C20 130 15 100 35 90 C30 65 55 45 80 50 C90 30 120 25 140 40 C165 30 190 50 180 75 C195 80 195 110 175 115 C180 135 160 140 145 130 Z"/>
    <!-- Kubernetes wheel inside cloud -->
    <circle cx="105" cy="90" r="12"/>
    <line x1="105" y1="75" x2="105" y2="65"/>
    <line x1="105" y1="105" x2="105" y2="115"/>
    <line x1="92" y1="82" x2="84" y2="75"/>
    <line x1="118" y1="82" x2="126" y2="75"/>
    <line x1="92" y1="98" x2="84" y2="105"/>
    <line x1="118" y1="98" x2="126" y2="105"/>
    <!-- Container boxes below cloud -->
    <rect x="50" y="150" width="30" height="22" rx="3"/>
    <rect x="85" y="150" width="30" height="22" rx="3"/>
    <rect x="120" y="150" width="30" height="22" rx="3"/>
    <!-- Connection lines from cloud to containers -->
    <line x1="65" y1="135" x2="65" y2="150"/>
    <line x1="100" y1="130" x2="100" y2="150"/>
    <line x1="135" y1="135" x2="135" y2="150"/>
  </g>
</svg>
