<svg xmlns="http://www.w3.org/2000/svg" viewBox="10 10 195 195" width="215" height="215">
  <g fill="#6BA4C9">
    <circle cx="107" cy="107" r="25"/>
    <circle cx="107" cy="28" r="18"/>
    <circle cx="107" cy="186" r="18"/>
    <circle cx="28" cy="107" r="18"/>
    <circle cx="186" cy="107" r="18"/>
    <circle cx="48" cy="48" r="15"/>
    <circle cx="166" cy="48" r="15"/>
    <circle cx="48" cy="166" r="15"/>
    <circle cx="166" cy="166" r="15"/>
    <rect x="104" y="28" width="7" height="54" rx="3.5"/>
    <rect x="104" y="132" width="7" height="54" rx="3.5"/>
    <rect x="28" y="104" width="54" height="7" rx="3.5"/>
    <rect x="132" y="104" width="54" height="7" rx="3.5"/>
    <rect x="52" y="49" width="60" height="7" rx="3.5" transform="rotate(-45 82 52.5)"/>
    <rect x="103" y="49" width="60" height="7" rx="3.5" transform="rotate(45 133 52.5)"/>
    <rect x="52" y="159" width="60" height="7" rx="3.5" transform="rotate(45 82 162.5)"/>
    <rect x="103" y="159" width="60" height="7" rx="3.5" transform="rotate(-45 133 162.5)"/>
  </g>
</svg>
