<svg xmlns="http://www.w3.org/2000/svg" viewBox="0 0 215 215" width="215" height="215">
  <!-- Brain/AI icon matching the flat blue style of other feature icons -->
  <!-- Color sampled from existing icons -->
  <g fill="#6BA4C9">
    <!-- Central node -->
    <circle cx="107" cy="107" r="22"/>
    <!-- Top node -->
    <circle cx="107" cy="35" r="16"/>
    <!-- Bottom node -->
    <circle cx="107" cy="179" r="16"/>
    <!-- Left node -->
    <circle cx="35" cy="107" r="16"/>
    <!-- Right node -->
    <circle cx="179" cy="107" r="16"/>
    <!-- Top-left node -->
    <circle cx="52" cy="52" r="13"/>
    <!-- Top-right node -->
    <circle cx="162" cy="52" r="13"/>
    <!-- Bottom-left node -->
    <circle cx="52" cy="162" r="13"/>
    <!-- Bottom-right node -->
    <circle cx="162" cy="162" r="13"/>
    <!-- Connections from center -->
    <rect x="104" y="35" width="6" height="50" rx="3"/>
    <rect x="104" y="129" width="6" height="50" rx="3"/>
    <rect x="35" y="104" width="50" height="6" rx="3"/>
    <rect x="129" y="104" width="50" height="6" rx="3"/>
    <!-- Diagonal connections -->
    <rect x="56" y="53" width="55" height="6" rx="3" transform="rotate(-45 83.5 56)"/>
    <rect x="104" y="53" width="55" height="6" rx="3" transform="rotate(45 131.5 56)"/>
    <rect x="56" y="156" width="55" height="6" rx="3" transform="rotate(45 83.5 159)"/>
    <rect x="104" y="156" width="55" height="6" rx="3" transform="rotate(-45 131.5 159)"/>
  </g>
</svg>
